<mxfile host="app.diagrams.net" modified="2024-04-22T09:02:45.748Z" agent="Mozilla/5.0 (Windows NT 10.0; Win64; x64) AppleWebKit/537.36 (KHTML, like Gecko) Chrome/123.0.0.0 Safari/537.36" etag="mzMdTgRMqHDxReQi2KKT" version="24.2.7" type="device">
  <diagram name="Page-1" id="c4acf3e9-155e-7222-9cf6-157b1a14988f">
    <mxGraphModel dx="1562" dy="893" grid="1" gridSize="10" guides="1" tooltips="1" connect="1" arrows="1" fold="1" page="1" pageScale="1" pageWidth="850" pageHeight="1100" background="none" math="0" shadow="0">
      <root>
        <mxCell id="0" />
        <mxCell id="1" parent="0" />
        <mxCell id="5d2195bd80daf111-18" value="&lt;p style=&quot;margin: 4px 0px 0px; text-align: center; line-height: 140%;&quot;&gt;&lt;b&gt;product&lt;/b&gt;&lt;/p&gt;&lt;hr style=&quot;line-height: 140%;&quot; size=&quot;1&quot;&gt;&lt;p style=&quot;margin: 0px 0px 0px 4px; line-height: 140%;&quot;&gt;&lt;span style=&quot;background-color: initial;&quot;&gt;+&amp;nbsp;&lt;/span&gt;&lt;span style=&quot;background-color: initial;&quot;&gt;product_id: Primary Key&lt;/span&gt;&lt;br&gt;&lt;/p&gt;&lt;p style=&quot;margin: 0px 0px 0px 4px; line-height: 140%;&quot;&gt;+ ean_id: int&lt;/p&gt;&lt;p style=&quot;margin: 0px 0px 0px 4px; line-height: 140%;&quot;&gt;+ short_name: string&lt;br&gt;&lt;/p&gt;&lt;p style=&quot;margin: 0px 0px 0px 4px; line-height: 140%;&quot;&gt;+ long_name: string&lt;/p&gt;&lt;p style=&quot;margin: 0px 0px 0px 4px; line-height: 140%;&quot;&gt;&lt;span style=&quot;background-color: initial;&quot;&gt;+ category_id: int (foreign key)&lt;/span&gt;&lt;br&gt;&lt;/p&gt;&lt;p style=&quot;margin: 0px 0px 0px 4px; line-height: 140%;&quot;&gt;+ unit measure: int (foreign key)&lt;/p&gt;&lt;p style=&quot;margin: 0px 0px 0px 4px; line-height: 140%;&quot;&gt;+ description: string&lt;/p&gt;&lt;p style=&quot;margin: 0px 0px 0px 4px; line-height: 140%;&quot;&gt;+ net_price: float&lt;/p&gt;&lt;p style=&quot;margin: 0px 0px 0px 4px; line-height: 140%;&quot;&gt;+ vat_id: int&lt;/p&gt;&lt;p style=&quot;margin: 0px 0px 0px 4px; line-height: 140%;&quot;&gt;+ date_add: date&lt;/p&gt;&lt;hr style=&quot;line-height: 140%;&quot; size=&quot;1&quot;&gt;&lt;p style=&quot;margin: 0px 0px 0px 4px; line-height: 140%;&quot;&gt;&amp;nbsp;method1(Type): Type&lt;/p&gt;&lt;p style=&quot;margin: 0px 0px 0px 4px; line-height: 140%;&quot;&gt;&lt;br&gt;&lt;br&gt;&lt;/p&gt;" style="verticalAlign=top;align=left;overflow=fill;fontSize=12;fontFamily=Helvetica;html=1;rounded=0;shadow=0;comic=0;labelBackgroundColor=none;strokeWidth=1" parent="1" vertex="1">
          <mxGeometry x="40" y="440" width="220" height="313" as="geometry" />
        </mxCell>
        <mxCell id="g0YLnxrTbjtaAEK9dJnq-2" value="&lt;p style=&quot;margin: 4px 0px 0px; text-align: center; line-height: 140%;&quot;&gt;&lt;b&gt;product_category&lt;/b&gt;&lt;/p&gt;&lt;hr style=&quot;line-height: 140%;&quot; size=&quot;1&quot;&gt;&lt;p style=&quot;margin: 0px 0px 0px 4px; line-height: 140%;&quot;&gt;&lt;span style=&quot;background-color: initial;&quot;&gt;+ category_id:&lt;/span&gt;&lt;/p&gt;&lt;hr style=&quot;line-height: 140%;&quot; size=&quot;1&quot;&gt;&lt;p style=&quot;margin: 0px 0px 0px 4px; line-height: 140%;&quot;&gt;+ method1(Type): Type&lt;br&gt;&lt;br&gt;&lt;/p&gt;" style="verticalAlign=top;align=left;overflow=fill;fontSize=12;fontFamily=Helvetica;html=1;rounded=0;shadow=0;comic=0;labelBackgroundColor=none;strokeWidth=1" vertex="1" parent="1">
          <mxGeometry x="40" y="790" width="220" height="100" as="geometry" />
        </mxCell>
        <mxCell id="g0YLnxrTbjtaAEK9dJnq-22" value="&lt;p style=&quot;margin: 4px 0px 0px; text-align: center; line-height: 140%;&quot;&gt;&lt;b&gt;user&lt;/b&gt;&lt;/p&gt;&lt;hr style=&quot;line-height: 140%;&quot; size=&quot;1&quot;&gt;&lt;p style=&quot;margin: 0px 0px 0px 4px; line-height: 140%;&quot;&gt;- user_id: int, Primary Key&lt;/p&gt;&lt;p style=&quot;margin: 0px 0px 0px 4px; line-height: 140%;&quot;&gt;- name: string&lt;/p&gt;&lt;p style=&quot;margin: 0px 0px 0px 4px; line-height: 140%;&quot;&gt;- email: string&lt;/p&gt;&lt;p style=&quot;margin: 0px 0px 0px 4px; line-height: 140%;&quot;&gt;- password: string&lt;/p&gt;&lt;p style=&quot;margin: 0px 0px 0px 4px; line-height: 140%;&quot;&gt;- loginStatus: date&lt;/p&gt;&lt;hr style=&quot;line-height: 140%;&quot; size=&quot;1&quot;&gt;&lt;p style=&quot;margin: 0px 0px 0px 4px; line-height: 140%;&quot;&gt;+ verifyLogin(): bool&lt;br&gt;&lt;br&gt;&lt;/p&gt;" style="verticalAlign=top;align=left;overflow=fill;fontSize=12;fontFamily=Helvetica;html=1;rounded=0;shadow=0;comic=0;labelBackgroundColor=none;strokeWidth=1" vertex="1" parent="1">
          <mxGeometry x="770" y="10" width="220" height="313" as="geometry" />
        </mxCell>
        <mxCell id="g0YLnxrTbjtaAEK9dJnq-23" value="&lt;p style=&quot;margin: 4px 0px 0px; text-align: center; line-height: 140%;&quot;&gt;&lt;b&gt;client&lt;/b&gt;&lt;/p&gt;&lt;hr style=&quot;line-height: 140%;&quot; size=&quot;1&quot;&gt;&lt;p style=&quot;margin: 0px 0px 0px 4px; line-height: 140%;&quot;&gt;- user_id: int, Primary Key&lt;/p&gt;&lt;p style=&quot;margin: 0px 0px 0px 4px; line-height: 140%;&quot;&gt;- type_id: int, foreign key&lt;/p&gt;&lt;p style=&quot;margin: 0px 0px 0px 4px; line-height: 140%;&quot;&gt;- name: string&lt;/p&gt;&lt;p style=&quot;margin: 0px 0px 0px 4px; line-height: 140%;&quot;&gt;- nip: int&lt;br&gt;&lt;/p&gt;&lt;p style=&quot;margin: 0px 0px 0px 4px; line-height: 140%;&quot;&gt;- accountBalance: float&lt;/p&gt;&lt;p style=&quot;margin: 0px 0px 0px 4px; line-height: 140%;&quot;&gt;- orders_id: int&lt;/p&gt;&lt;hr style=&quot;line-height: 140%;&quot; size=&quot;1&quot;&gt;&lt;p style=&quot;margin: 0px 0px 0px 4px; line-height: 140%;&quot;&gt;+ register()&lt;/p&gt;&lt;p style=&quot;margin: 0px 0px 0px 4px; line-height: 140%;&quot;&gt;+ login()&lt;/p&gt;&lt;p style=&quot;margin: 0px 0px 0px 4px; line-height: 140%;&quot;&gt;+ updateProfile()&lt;br&gt;&lt;br&gt;&lt;/p&gt;" style="verticalAlign=top;align=left;overflow=fill;fontSize=12;fontFamily=Helvetica;html=1;rounded=0;shadow=0;comic=0;labelBackgroundColor=none;strokeWidth=1" vertex="1" parent="1">
          <mxGeometry x="430" y="10" width="220" height="313" as="geometry" />
        </mxCell>
      </root>
    </mxGraphModel>
  </diagram>
</mxfile>
